<svg version="1.1" xmlns="http://www.w3.org/2000/svg" viewBox="-2458.624101257324 -1075.2000610351563 8015.360424804687 2478.0801025390624"><desc>Created with Snap</desc><defs></defs><g><rect x="-2458.624101257324" y="-1075.2000610351563" width="8015.360424804687" height="2478.0801025390624" fill="#5c0a27" style=""></rect><g transform="matrix(58.24,0,0,58.24,-2151.4241,-767.0682)"><g display="none"><rect x="-331.365" y="-102.667" display="inline" fill="#ffffff" width="473.333" height="236" style=""></rect></g><g display="none"><g display="inline"><g><path d="M30,1.984v28H2v-28H30 M32-0.016H0v32h32V-0.016L32-0.016z" fill="#ffffff" style=""></path></g></g><g display="inline"><g><polygon fill="#ffffff" points="10.918,9.09 15.398,16.831 6.439,16.831    " style=""></polygon></g><g><polygon fill="#ffffff" points="21.082,5.59 25.561,13.331 16.602,13.331    " style=""></polygon></g><g><polygon fill="#ffffff" points="10.918,18.669 15.398,26.41 6.439,26.41    " style=""></polygon></g><g><polygon points="21.082,15.169 25.561,22.91 16.602,22.91    " fill="#ffffff" style=""></polygon></g></g></g><g display="none"><g display="inline"><path fill="#ffffff" d="M31,0.984v30H1v-30H31 M32-0.016H0v32h32V-0.016L32-0.016z" style=""></path></g><g display="inline"><path fill="#ffffff" d="M10.918,11.087l2.745,4.744h-5.49L10.918,11.087 M10.918,9.09l-4.479,7.741h8.958L10.918,9.09L10.918,9.09    z" style=""></path></g><g display="inline"><path fill="#ffffff" d="M21.082,7.587l2.745,4.744h-5.49L21.082,7.587 M21.082,5.59l-4.479,7.741h8.958L21.082,5.59L21.082,5.59z" style=""></path></g><g display="inline"><path fill="#ffffff" d="M10.918,20.666l2.745,4.744h-5.49L10.918,20.666 M10.918,18.669L6.439,26.41h8.958L10.918,18.669    L10.918,18.669z" style=""></path></g><g display="inline"><path fill="#ffffff" d="M21.082,17.166l2.745,4.744h-5.49L21.082,17.166 M21.082,15.169l-4.479,7.741h8.958L21.082,15.169    L21.082,15.169z" style=""></path></g></g><g display="none"><g display="inline"><g><rect x="0.5" y="0.484" fill="#ffffff" width="31" height="31" style=""></rect></g><g><g><path d="M31,0.984v30H1v-30H31 M32-0.016H0v32h32V-0.016L32-0.016z" fill="#ffffff" style=""></path></g></g></g><g display="inline"><g><polygon fill="#ffffff" points="7.307,16.331 10.918,10.088 14.53,16.331    " style=""></polygon></g><g><g><path d="M10.918,11.087l2.745,4.744h-5.49L10.918,11.087 M10.918,9.09l-4.479,7.741h8.958L10.918,9.09L10.918,9.09z" fill="#ffffff" style=""></path></g></g></g><g display="inline"><g><polygon fill="#ffffff" points="17.47,12.831 21.082,6.588 24.693,12.831    " style=""></polygon></g><g><path d="M21.082,7.587l2.745,4.744h-5.49L21.082,7.587 M21.082,5.59l-4.479,7.741h8.958L21.082,5.59L21.082,5.59z" fill="#ffffff" style=""></path></g></g><g display="inline"><g><polygon fill="#ffffff" points="7.307,25.91 10.918,19.667 14.53,25.91    " style=""></polygon></g><g><g><path d="M10.918,20.666l2.745,4.744h-5.49L10.918,20.666 M10.918,18.669L6.439,26.41h8.958L10.918,18.669L10.918,18.669z" fill="#ffffff" style=""></path></g></g></g><g display="inline"><g><polygon fill="#ffffff" points="17.47,22.41 21.082,16.167 24.693,22.41    " style=""></polygon></g><g><path d="M21.082,17.166l2.745,4.744h-5.49L21.082,17.166 M21.082,15.169l-4.479,7.741h8.958L21.082,15.169L21.082,15.169z" fill="#ffffff" style=""></path></g></g></g><g><g><path d="M0,31.984h32v-32H0V31.984z M2,1.984h28v28H2V1.984z" fill="#ffffff" style=""></path><polygon points="6.439,16.831 15.398,16.831 10.918,9.09   " fill="#ffffff" style=""></polygon><polygon points="16.602,13.331 25.561,13.331 21.082,5.59   " fill="#ffffff" style=""></polygon><polygon points="6.439,26.41 15.398,26.41 10.918,18.669   " fill="#ffffff" style=""></polygon><polygon points="16.602,22.91 25.561,22.91 21.082,15.169   " fill="#ffffff" style=""></polygon></g></g><desc>Created with Snap</desc><defs></defs></g><g><g transform="matrix(1.024,0,0,-1.024,0,0)"><path d="M102 13L102 561L42 561Q32 561 25 567Q19 574 19 584Q19 594 25 601Q32 608 42 608L125 608Q141 608 151 596L402 253L652 595Q661 608 677 608L762 608Q772 608 778 601Q785 594 785 584Q785 574 778 567Q772 561 762 561L702 561L702 62Q702 47 725 47L762 47Q772 47 778 40Q785 33 785 23Q785 13 778 6Q772 0 762 0L725 0Q648 0 648 62L648 503L424 197Q416 186 402 186Q388 186 380 197L156 503L156 13Q156 3 148 -4Q140 -10 129 -10Q118 -10 110 -4Q102 3 102 13ZM1348 136L1348 155Q1282 173 1235 173Q1189 173 1159 155Q1130 137 1130 104Q1130 72 1149 54Q1168 36 1201 36Q1293 36 1348 136ZM1428 47L1467 47Q1477 47 1483 40Q1490 33 1490 23Q1490 13 1483 6Q1477 0 1467 0L1423 0Q1387 0 1367 16Q1348 32 1348 61Q1348 66 1349 72Q1296 -10 1195 -10Q1139 -10 1107 20Q1076 50 1076 103Q1076 157 1118 187Q1161 218 1224 218Q1288 218 1348 197L1348 266Q1348 314 1313 328Q1286 338 1238 338Q1191 338 1151 322L1151 259Q1151 249 1143 242Q1135 236 1124 236Q1113 236 1105 242Q1097 249 1097 259L1097 335Q1097 348 1110 355Q1159 384 1240 384Q1321 384 1361 357Q1401 331 1401 266L1401 66Q1401 47 1428 47ZM1560 327L1513 327Q1503 327 1496 333Q1490 340 1490 350Q1490 360 1496 367Q1503 374 1513 374L1567 374Q1629 374 1629 306Q1689 384 1780 384Q1834 384 1868 356Q1903 329 1903 276L1903 66Q1903 47 1930 47L1969 47Q1979 47 1985 40Q1992 33 1992 23Q1992 13 1985 6Q1979 0 1969 0L1930 0Q1849 0 1849 65L1849 276Q1849 306 1830 322Q1812 338 1779 338Q1687 338 1633 242L1633 13Q1633 3 1625 -4Q1617 -10 1606 -10Q1595 -10 1587 -4Q1579 3 1579 13L1579 308Q1579 327 1560 327ZM2213 338Q2156 338 2122 297Q2088 256 2088 186Q2088 116 2121 76Q2155 36 2213 36Q2297 36 2347 131L2347 278Q2321 303 2284 320Q2248 338 2213 338ZM2347 331L2347 703L2281 703Q2271 703 2264 709Q2258 716 2258 726Q2258 736 2264 743Q2271 750 2281 750L2374 750Q2385 750 2393 743Q2401 736 2401 726L2401 66Q2401 47 2421 47L2467 47Q2477 47 2483 40Q2490 34 2490 24Q2490 14 2483 7Q2477 0 2467 0L2414 0Q2349 0 2351 71Q2329 37 2293 13Q2258 -10 2213 -10Q2124 -10 2079 47Q2035 104 2035 188Q2035 272 2081 328Q2128 384 2209 384Q2290 384 2347 331ZM3075 561L2875 561L2875 279L3075 279Q3240 279 3240 421Q3240 496 3198 528Q3157 561 3075 561ZM3075 233L2875 233L2875 13Q2875 3 2867 -4Q2859 -10 2848 -10Q2837 -10 2829 -4Q2821 3 2821 13L2821 561L2761 561Q2751 561 2744 567Q2738 574 2738 584Q2738 594 2744 601Q2751 608 2761 608L3075 608Q3294 608 3294 421Q3294 286 3175 247L3304 24Q3306 20 3306 15Q3306 1 3294 -5Q3283 -11 3274 -11Q3265 -11 3258 0L3121 235Q3095 233 3075 233Z" fill="#ffffff" style=""></path></g></g><g transform="matrix(0.75,0,0,0.75,4.096,909.056)"><g transform="matrix(1.024,0,0,-1.024,0,0)"><path d="M328 170Q282 271 246 365Q211 460 186 534Q163 410 147 284Q132 158 108 43Q102 17 86 8Q70 0 59 0Q41 0 30 11Q20 22 20 39Q20 62 25 109Q31 157 39 217Q48 277 59 343Q70 409 81 470Q93 532 103 582Q114 632 122 659Q135 705 175 705Q199 705 216 681Q233 658 252 609Q272 561 299 487Q327 413 371 313Q414 413 440 486Q467 560 485 608Q504 657 521 680Q538 704 563 704Q586 704 598 692Q610 681 616 658Q623 630 633 580Q643 531 654 470Q666 410 677 344Q688 278 697 218Q706 158 711 109Q717 61 717 35Q717 19 706 9Q695 0 678 0Q667 0 651 8Q635 17 629 43Q617 100 607 161Q598 222 589 284Q581 347 573 409Q565 472 556 534Q543 494 526 446Q509 398 490 349Q471 301 451 254Q431 207 412 169Q405 156 393 149Q382 143 370 143Q357 143 345 149Q334 156 328 170ZM1208 -4Q1192 -4 1182 1Q1173 7 1168 16Q1163 25 1161 37Q1159 50 1158 64Q1133 33 1093 12Q1054 -9 993 -9Q954 -9 913 2Q873 14 840 42Q807 71 786 119Q765 167 765 240Q765 297 779 347Q793 397 821 434Q850 472 893 494Q936 516 994 516Q1045 516 1085 497Q1125 479 1157 437Q1157 449 1158 461Q1159 474 1163 484Q1168 495 1178 501Q1188 508 1205 508Q1220 508 1233 496Q1246 484 1248 444Q1251 391 1252 349Q1254 307 1254 262Q1254 207 1253 161Q1252 115 1248 63Q1246 40 1242 26Q1239 13 1234 6Q1229 0 1222 -2Q1215 -4 1208 -4ZM1154 250Q1154 302 1138 335Q1123 368 1099 386Q1076 405 1049 412Q1022 419 999 419Q963 419 937 406Q912 393 896 370Q880 348 872 317Q865 287 865 251Q865 163 903 121Q942 79 1008 79Q1047 79 1074 92Q1102 106 1119 129Q1137 152 1145 183Q1154 215 1154 250ZM1375 53Q1373 75 1372 119Q1371 164 1370 222Q1369 281 1369 350Q1369 419 1369 491Q1369 576 1370 630Q1371 684 1376 715Q1381 746 1392 757Q1403 769 1424 769Q1442 769 1450 757Q1458 746 1462 707Q1464 683 1465 642Q1467 602 1467 554Q1468 506 1468 454Q1469 402 1469 355L1469 274L1691 475Q1702 485 1717 494Q1733 504 1750 504Q1770 504 1780 488Q1790 473 1790 453Q1790 442 1786 432Q1783 423 1772 415L1637 304L1801 66Q1810 54 1810 39Q1810 17 1796 6Q1782 -5 1760 -5Q1744 -5 1732 1Q1720 7 1709 24L1559 241L1468 166Q1467 129 1466 100Q1465 71 1463 54Q1459 19 1450 8Q1441 -3 1418 -3Q1395 -3 1386 8Q1378 19 1375 53ZM2130 184Q2095 184 2056 189Q2018 195 1973 213Q1982 152 2023 121Q2065 90 2143 90Q2171 90 2193 93Q2216 97 2233 101Q2250 106 2263 109Q2276 113 2287 113Q2301 113 2314 104Q2327 96 2327 76Q2327 51 2306 35Q2286 19 2256 9Q2227 0 2194 -4Q2161 -7 2136 -7Q2077 -7 2027 9Q1978 25 1942 57Q1906 90 1886 138Q1866 186 1866 250Q1866 312 1885 360Q1905 408 1939 441Q1973 474 2019 491Q2066 508 2120 508Q2162 508 2201 497Q2241 486 2271 464Q2302 442 2320 408Q2339 375 2339 330Q2339 290 2324 262Q2309 234 2281 217Q2254 200 2215 192Q2177 184 2130 184ZM2123 416Q2096 416 2071 409Q2046 403 2025 388Q2005 374 1991 350Q1977 327 1972 292Q2010 275 2046 268Q2082 262 2122 262Q2181 262 2209 276Q2238 291 2238 329Q2238 364 2211 390Q2185 416 2123 416ZM2657 62Q2655 98 2654 137Q2654 176 2653 221Q2652 266 2652 318Q2652 371 2652 436Q2652 507 2653 557Q2654 608 2659 640Q2664 672 2674 687Q2685 702 2703 702Q2712 702 2720 700Q2728 698 2734 691Q2740 685 2744 672Q2749 660 2750 640Q2752 604 2753 576Q2754 548 2755 520Q2756 493 2756 463Q2756 434 2756 397Q2756 352 2756 311Q2756 270 2755 230Q2754 190 2753 149Q2752 108 2750 63Q2749 39 2745 26Q2741 13 2735 6Q2729 -1 2721 -3Q2713 -4 2703 -4Q2685 -4 2672 8Q2659 21 2657 62ZM2973 65Q2970 128 2969 214Q2969 301 2969 411Q2959 410 2945 410Q2932 410 2924 410Q2906 410 2891 411Q2877 412 2866 417Q2855 422 2849 431Q2843 441 2843 458Q2843 506 2915 506Q2926 506 2942 506Q2958 506 2969 504Q2969 557 2971 589Q2973 621 2978 638Q2984 656 2993 661Q3003 667 3018 667Q3034 667 3044 656Q3054 645 3059 628Q3065 611 3066 590Q3068 569 3068 549Q3068 535 3067 523Q3067 512 3067 503Q3081 507 3096 507Q3111 508 3125 508Q3162 508 3182 496Q3202 485 3202 459Q3202 443 3195 433Q3188 424 3176 419Q3165 414 3149 412Q3134 411 3116 411Q3106 411 3093 411Q3080 411 3069 413Q3069 360 3069 316Q3069 272 3068 231Q3067 191 3066 151Q3065 111 3063 66Q3062 42 3058 29Q3055 16 3049 9Q3043 2 3035 0Q3028 -1 3018 -1Q3000 -1 2987 11Q2975 24 2973 65ZM3887 62Q3885 116 3883 175Q3882 235 3882 313Q3850 312 3814 311Q3778 311 3740 311Q3695 311 3658 311Q3621 311 3592 312Q3591 249 3590 190Q3589 132 3586 63Q3585 39 3581 26Q3578 13 3572 6Q3566 -1 3558 -3Q3551 -4 3541 -4Q3523 -4 3511 8Q3499 21 3497 62Q3495 98 3494 137Q3494 176 3493 221Q3492 266 3492 318Q3492 371 3492 436Q3492 507 3493 557Q3494 608 3498 640Q3503 672 3513 687Q3523 702 3541 702Q3558 702 3571 691Q3584 680 3586 640Q3588 606 3589 578Q3590 551 3591 524Q3592 498 3592 470Q3592 442 3592 408Q3667 411 3739 411Q3774 411 3809 410Q3845 409 3882 407L3882 436Q3882 507 3883 557Q3884 608 3888 640Q3893 672 3903 687Q3913 702 3931 702Q3948 702 3961 691Q3974 680 3976 640Q3978 604 3979 576Q3980 548 3981 520Q3982 493 3982 463Q3982 434 3982 397Q3982 352 3982 311Q3982 270 3981 230Q3980 190 3979 149Q3978 108 3976 63Q3975 39 3971 26Q3968 13 3962 6Q3956 -1 3948 -3Q3941 -4 3931 -4Q3913 -4 3901 8Q3889 21 3887 62ZM4513 -4Q4497 -4 4487 1Q4478 7 4473 16Q4468 25 4466 37Q4464 50 4463 64Q4438 33 4398 12Q4359 -9 4298 -9Q4259 -9 4218 2Q4178 14 4145 42Q4112 71 4091 119Q4070 167 4070 240Q4070 297 4084 347Q4098 397 4126 434Q4155 472 4198 494Q4241 516 4299 516Q4350 516 4390 497Q4430 479 4462 437Q4462 449 4463 461Q4464 474 4468 484Q4473 495 4483 501Q4493 508 4510 508Q4525 508 4538 496Q4551 484 4553 444Q4556 391 4557 349Q4559 307 4559 262Q4559 207 4558 161Q4557 115 4553 63Q4551 40 4547 26Q4544 13 4539 6Q4534 0 4527 -2Q4520 -4 4513 -4ZM4459 250Q4459 302 4443 335Q4428 368 4404 386Q4381 405 4354 412Q4327 419 4304 419Q4268 419 4242 406Q4217 393 4201 370Q4185 348 4177 317Q4170 287 4170 251Q4170 163 4208 121Q4247 79 4313 79Q4352 79 4379 92Q4407 106 4424 129Q4442 152 4450 183Q4459 215 4459 250ZM4785 -144Q4785 -163 4784 -181Q4783 -198 4777 -212Q4772 -226 4761 -235Q4751 -243 4732 -243Q4710 -243 4695 -228Q4681 -212 4679 -173Q4678 -148 4676 -112Q4674 -76 4672 -36Q4671 4 4669 44Q4668 84 4668 118Q4668 235 4684 311Q4701 387 4734 432Q4767 477 4815 495Q4864 513 4928 513Q4979 513 5024 497Q5069 482 5102 449Q5136 417 5156 365Q5176 314 5176 242Q5176 182 5155 136Q5135 90 5099 58Q5063 27 5014 10Q4966 -6 4911 -6Q4864 -6 4826 13Q4789 33 4773 56Q4778 0 4781 -48Q4785 -96 4785 -144ZM4923 413Q4888 413 4862 401Q4837 389 4821 368Q4805 347 4797 318Q4790 289 4790 255Q4790 222 4796 192Q4803 163 4818 141Q4833 119 4858 106Q4883 93 4919 93Q4947 93 4973 100Q4999 108 5019 126Q5040 144 5052 174Q5065 204 5065 249Q5065 295 5052 326Q5040 358 5019 377Q4999 397 4973 405Q4948 413 4923 413ZM5374 -144Q5374 -163 5373 -181Q5372 -198 5366 -212Q5361 -226 5350 -235Q5340 -243 5321 -243Q5299 -243 5284 -228Q5270 -212 5268 -173Q5267 -148 5265 -112Q5263 -76 5261 -36Q5260 4 5258 44Q5257 84 5257 118Q5257 235 5273 311Q5290 387 5323 432Q5356 477 5404 495Q5453 513 5517 513Q5568 513 5613 497Q5658 482 5691 449Q5725 417 5745 365Q5765 314 5765 242Q5765 182 5744 136Q5724 90 5688 58Q5652 27 5603 10Q5555 -6 5500 -6Q5453 -6 5415 13Q5378 33 5362 56Q5367 0 5370 -48Q5374 -96 5374 -144ZM5512 413Q5477 413 5451 401Q5426 389 5410 368Q5394 347 5386 318Q5379 289 5379 255Q5379 222 5385 192Q5392 163 5407 141Q5422 119 5447 106Q5472 93 5508 93Q5536 93 5562 100Q5588 108 5608 126Q5629 144 5641 174Q5654 204 5654 249Q5654 295 5641 326Q5629 358 5608 377Q5588 397 5562 405Q5537 413 5512 413ZM6085 184Q6050 184 6011 189Q5973 195 5928 213Q5937 152 5978 121Q6020 90 6098 90Q6126 90 6148 93Q6171 97 6188 101Q6205 106 6218 109Q6231 113 6242 113Q6256 113 6269 104Q6282 96 6282 76Q6282 51 6261 35Q6241 19 6211 9Q6182 0 6149 -4Q6116 -7 6091 -7Q6032 -7 5982 9Q5933 25 5897 57Q5861 90 5841 138Q5821 186 5821 250Q5821 312 5840 360Q5860 408 5894 441Q5928 474 5974 491Q6021 508 6075 508Q6117 508 6156 497Q6196 486 6226 464Q6257 442 6275 408Q6294 375 6294 330Q6294 290 6279 262Q6264 234 6236 217Q6209 200 6170 192Q6132 184 6085 184ZM6078 416Q6051 416 6026 409Q6001 403 5980 388Q5960 374 5946 350Q5932 327 5927 292Q5965 275 6001 268Q6037 262 6077 262Q6136 262 6164 276Q6193 291 6193 329Q6193 364 6166 390Q6140 416 6078 416ZM6624 426Q6587 426 6557 414Q6528 402 6491 378Q6491 357 6491 316Q6491 276 6490 228Q6489 181 6488 135Q6487 89 6484 58Q6482 38 6479 26Q6477 15 6472 9Q6468 3 6460 1Q6453 0 6441 0Q6429 0 6421 1Q6414 3 6409 8Q6404 14 6401 25Q6398 36 6396 55Q6394 73 6392 103Q6391 133 6390 168Q6389 204 6388 240Q6388 277 6388 308Q6388 359 6389 391Q6391 423 6395 448Q6401 490 6411 501Q6421 512 6438 512Q6463 512 6475 498Q6488 484 6491 452Q6528 484 6570 503Q6613 522 6658 522Q6701 522 6736 502Q6772 482 6795 437Q6809 410 6816 377Q6823 345 6826 309Q6827 293 6828 277Q6829 262 6829 244Q6830 227 6830 205Q6830 183 6830 153Q6830 121 6829 93Q6828 65 6823 44Q6819 24 6808 12Q6797 1 6778 1Q6732 1 6730 45Q6730 48 6730 70Q6730 93 6729 123Q6729 153 6728 184Q6728 215 6727 235Q6726 251 6724 269Q6723 288 6720 307Q6718 326 6714 343Q6710 361 6704 375Q6690 408 6669 417Q6648 426 6624 426Z" fill="#ffffff" style=""></path></g></g></g></svg>